<svg width="240" height="140" viewBox="0 0 240 140" fill="none" xmlns="http://www.w3.org/2000/svg">
  <!-- Main tree canopy - large solid shape -->
  <path d="M120 5
    C100 8, 80 15, 70 25
    C60 35, 55 45, 55 55
    C55 65, 60 75, 70 85
    C80 95, 95 105, 110 110
    L120 115
    L130 110
    C145 105, 160 95, 170 85
    C180 75, 185 65, 185 55
    C185 45, 180 35, 170 25
    C160 15, 140 8, 120 5 Z" 
    fill="#000000"/>
  
  <!-- Tree trunk - prominent and wider -->
  <rect x="110" y="105" width="20" height="40" rx="4" fill="#000000"/>
  
  <!-- WESTCHESTER text -->
  <text x="120" y="160" font-family="Arial, sans-serif" font-size="11" font-weight="bold" text-anchor="middle" fill="#000000" letter-spacing="2">WESTCHESTER</text>
  
  <!-- Horizontal line separator -->
  <line x1="70" y1="165" x2="170" y2="165" stroke="#000000" stroke-width="2"/>
  
  <!-- SELECT REALTY text -->
  <text x="120" y="180" font-family="Arial, sans-serif" font-size="11" font-weight="bold" text-anchor="middle" fill="#000000" letter-spacing="2">SELECT REALTY</text>
</svg>
